# xmcd CD database file
#
# Track frame offsets:
#	150
#	18280
#	35577
#	49130
#	67407
#	79642
#	92690
#	106620
#	121277
#	134900
#	151795
#	169205
#
# Disc length: 2390 seconds
#
# Revision: 1
# Processed by: cddbd v1.5.2PL0 Copyright (c) Steve Scherf et al.
# Submitted via: CDex 1.70beta2
#
DISCID=9c09540c
DTITLE=Oliver Onions - I Grandi Successi Originali - CD2
DYEAR=2000
DGENRE=Pop
TTITLE0=Zorro is back
TTITLE1=Verde (Da: Quaranta Giorni Di Libertà)
TTITLE2=Why is everyone so mad (Da "Anche gli angeli tirano di destro")
TTITLE3=Good bye my (Dal film "Il cittadino si ribella")
TTITLE4=Freedom rainbow
TTITLE5=To you my chica
TTITLE6=Sandokan
TTITLE7=Sweet lady blue
TTITLE8=Flying through the air (Dal film "Più forte ragazzi")
TTITLE9=Orzowei
TTITLE10=Galaxy
TTITLE11=Il Gatto doraemon
EXTD=YEAR: 2000
EXTT0=
EXTT1=
EXTT2=
EXTT3=
EXTT4=
EXTT5=
EXTT6=
EXTT7=
EXTT8=
EXTT9=
EXTT10=
EXTT11=
PLAYORDER=
